<mxfile host="app.diagrams.net" modified="2023-03-27T08:50:15.420Z" agent="5.0 (Windows)" etag="_FyTb_i2fHT3C9UaylxJ" version="21.0.8" type="github">
  <diagram name="Page-1" id="-BmmVKnTVcbrJND1lZiL">
    <mxGraphModel dx="740" dy="613" grid="1" gridSize="10" guides="1" tooltips="1" connect="1" arrows="1" fold="1" page="1" pageScale="1" pageWidth="827" pageHeight="1169" math="0" shadow="0">
      <root>
        <mxCell id="0" />
        <mxCell id="1" parent="0" />
        <mxCell id="hMwthV5b42bd3Ut4s8Y7-72" value="" style="rounded=0;whiteSpace=wrap;html=1;fillColor=#e1d5e7;strokeColor=#9673a6;strokeWidth=2;" parent="1" vertex="1">
          <mxGeometry x="530.11" y="220" width="720" height="610" as="geometry" />
        </mxCell>
        <mxCell id="hMwthV5b42bd3Ut4s8Y7-79" style="edgeStyle=orthogonalEdgeStyle;rounded=0;orthogonalLoop=1;jettySize=auto;html=1;entryX=0.5;entryY=1;entryDx=0;entryDy=0;" parent="1" source="hMwthV5b42bd3Ut4s8Y7-56" target="hMwthV5b42bd3Ut4s8Y7-44" edge="1">
          <mxGeometry relative="1" as="geometry" />
        </mxCell>
        <mxCell id="hMwthV5b42bd3Ut4s8Y7-56" value="&lt;div&gt;&lt;b&gt;Robust Covariance&lt;/b&gt;&lt;/div&gt;&lt;div&gt;&lt;b&gt;Estimation, A&lt;sub&gt;4&lt;/sub&gt;&lt;/b&gt;&lt;/div&gt;&lt;div&gt;&lt;font size=&quot;3&quot;&gt;&lt;b&gt;&lt;br&gt;&lt;/b&gt;&lt;/font&gt;&lt;/div&gt;&lt;div&gt;&lt;font size=&quot;3&quot;&gt;&lt;b&gt;&lt;br&gt;&lt;/b&gt;&lt;/font&gt;&lt;/div&gt;&lt;div&gt;&lt;font size=&quot;3&quot;&gt;&lt;b&gt;&lt;br&gt;&lt;/b&gt;&lt;/font&gt;&lt;/div&gt;&lt;div&gt;&lt;font size=&quot;3&quot;&gt;&lt;b&gt;&lt;br&gt;&lt;/b&gt;&lt;/font&gt;&lt;/div&gt;&lt;div&gt;&lt;font size=&quot;3&quot;&gt;&lt;b&gt;&lt;br&gt;&lt;/b&gt;&lt;/font&gt;&lt;/div&gt;&lt;div&gt;&lt;font size=&quot;3&quot;&gt;&lt;b&gt;&lt;br&gt;&lt;/b&gt;&lt;/font&gt;&lt;/div&gt;&lt;div&gt;&lt;font size=&quot;3&quot;&gt;&lt;b&gt;&lt;br&gt;&lt;/b&gt;&lt;/font&gt;&lt;/div&gt;&lt;div&gt;&lt;font size=&quot;3&quot;&gt;&lt;b&gt;&lt;br&gt;&lt;/b&gt;&lt;/font&gt;&lt;/div&gt;&lt;div&gt;&lt;font size=&quot;3&quot;&gt;&lt;b&gt;&lt;br&gt;&lt;/b&gt;&lt;/font&gt;&lt;/div&gt;&lt;div&gt;&lt;font size=&quot;3&quot;&gt;&lt;b&gt;&lt;br&gt;&lt;/b&gt;&lt;/font&gt;&lt;/div&gt;&lt;div&gt;&lt;font size=&quot;3&quot;&gt;&lt;b&gt;&lt;br&gt;&lt;/b&gt;&lt;/font&gt;&lt;/div&gt;&lt;div&gt;&lt;font size=&quot;3&quot;&gt;&lt;b&gt;&lt;br&gt;&lt;/b&gt;&lt;/font&gt;&lt;/div&gt;&lt;div&gt;&lt;br&gt;&lt;/div&gt;&lt;div&gt;&lt;br&gt;&lt;/div&gt;&lt;div&gt;&lt;br&gt;&lt;/div&gt;" style="rounded=0;whiteSpace=wrap;html=1;fillColor=#F8CECC;" parent="1" vertex="1">
          <mxGeometry x="1060.1100000000001" y="420" width="140" height="320" as="geometry" />
        </mxCell>
        <mxCell id="hMwthV5b42bd3Ut4s8Y7-75" value="" style="edgeStyle=orthogonalEdgeStyle;rounded=0;orthogonalLoop=1;jettySize=auto;html=1;" parent="1" source="hMwthV5b42bd3Ut4s8Y7-1" target="hMwthV5b42bd3Ut4s8Y7-26" edge="1">
          <mxGeometry relative="1" as="geometry" />
        </mxCell>
        <mxCell id="hMwthV5b42bd3Ut4s8Y7-1" value="&lt;b&gt;Isolation Forest, A&lt;sub&gt;1&lt;br&gt;&lt;/sub&gt;&lt;/b&gt;&lt;div&gt;&lt;font size=&quot;3&quot;&gt;&lt;b&gt;&lt;br&gt;&lt;/b&gt;&lt;/font&gt;&lt;/div&gt;&lt;div&gt;&lt;font size=&quot;3&quot;&gt;&lt;b&gt;&lt;br&gt;&lt;/b&gt;&lt;/font&gt;&lt;/div&gt;&lt;div&gt;&lt;font size=&quot;3&quot;&gt;&lt;b&gt;&lt;br&gt;&lt;/b&gt;&lt;/font&gt;&lt;/div&gt;&lt;div&gt;&lt;font size=&quot;3&quot;&gt;&lt;b&gt;&lt;br&gt;&lt;/b&gt;&lt;/font&gt;&lt;/div&gt;&lt;div&gt;&lt;font size=&quot;3&quot;&gt;&lt;b&gt;&lt;br&gt;&lt;/b&gt;&lt;/font&gt;&lt;/div&gt;&lt;div&gt;&lt;font size=&quot;3&quot;&gt;&lt;b&gt;&lt;br&gt;&lt;/b&gt;&lt;/font&gt;&lt;/div&gt;&lt;div&gt;&lt;font size=&quot;3&quot;&gt;&lt;b&gt;&lt;br&gt;&lt;/b&gt;&lt;/font&gt;&lt;/div&gt;&lt;div&gt;&lt;font size=&quot;3&quot;&gt;&lt;b&gt;&lt;br&gt;&lt;/b&gt;&lt;/font&gt;&lt;/div&gt;&lt;div&gt;&lt;font size=&quot;3&quot;&gt;&lt;b&gt;&lt;br&gt;&lt;/b&gt;&lt;/font&gt;&lt;/div&gt;&lt;div&gt;&lt;font size=&quot;3&quot;&gt;&lt;b&gt;&lt;br&gt;&lt;/b&gt;&lt;/font&gt;&lt;/div&gt;&lt;div&gt;&lt;font size=&quot;3&quot;&gt;&lt;b&gt;&lt;br&gt;&lt;/b&gt;&lt;/font&gt;&lt;/div&gt;&lt;div&gt;&lt;font size=&quot;3&quot;&gt;&lt;b&gt;&lt;br&gt;&lt;/b&gt;&lt;/font&gt;&lt;/div&gt;&lt;div&gt;&lt;br&gt;&lt;/div&gt;&lt;div&gt;&lt;br&gt;&lt;/div&gt;&lt;div&gt;&lt;br&gt;&lt;/div&gt;" style="rounded=0;whiteSpace=wrap;html=1;fillColor=#F8CECC;" parent="1" vertex="1">
          <mxGeometry x="580.11" y="420" width="140" height="320" as="geometry" />
        </mxCell>
        <mxCell id="hMwthV5b42bd3Ut4s8Y7-2" value="&lt;div&gt;Parent &lt;br&gt;&lt;/div&gt;&lt;div&gt;model, M&lt;sub&gt;1&lt;/sub&gt;&lt;/div&gt;" style="shape=process;whiteSpace=wrap;html=1;backgroundOutline=1;fillColor=#FFE599;" parent="1" vertex="1">
          <mxGeometry x="590.11" y="480" width="120" height="40" as="geometry" />
        </mxCell>
        <mxCell id="hMwthV5b42bd3Ut4s8Y7-3" value="&lt;div&gt;k-Child &lt;br&gt;&lt;/div&gt;&lt;div&gt;model, m&lt;sub&gt;1&lt;/sub&gt;&lt;/div&gt;" style="shape=process;whiteSpace=wrap;html=1;backgroundOutline=1;fillColor=#FFF2CC;" parent="1" vertex="1">
          <mxGeometry x="598.61" y="560" width="103" height="40" as="geometry" />
        </mxCell>
        <mxCell id="hMwthV5b42bd3Ut4s8Y7-4" value="&lt;div&gt;k-Child&lt;/div&gt;&lt;div&gt;model, m&lt;sub&gt;2&lt;/sub&gt;&lt;/div&gt;" style="shape=process;whiteSpace=wrap;html=1;backgroundOutline=1;fillColor=#FFF2CC;" parent="1" vertex="1">
          <mxGeometry x="598.61" y="620" width="103" height="40" as="geometry" />
        </mxCell>
        <mxCell id="hMwthV5b42bd3Ut4s8Y7-5" value="&lt;div&gt;k-Child &lt;br&gt;&lt;/div&gt;&lt;div&gt;model, m&lt;sub&gt;3&lt;/sub&gt;&lt;/div&gt;" style="shape=process;whiteSpace=wrap;html=1;backgroundOutline=1;fillColor=#FFF2CC;" parent="1" vertex="1">
          <mxGeometry x="598.61" y="680" width="103" height="40" as="geometry" />
        </mxCell>
        <mxCell id="hMwthV5b42bd3Ut4s8Y7-81" style="edgeStyle=orthogonalEdgeStyle;rounded=0;orthogonalLoop=1;jettySize=auto;html=1;entryX=0.5;entryY=1;entryDx=0;entryDy=0;" parent="1" source="hMwthV5b42bd3Ut4s8Y7-26" target="hMwthV5b42bd3Ut4s8Y7-74" edge="1">
          <mxGeometry relative="1" as="geometry">
            <Array as="points">
              <mxPoint x="650.11" y="340" />
              <mxPoint x="890.11" y="340" />
            </Array>
          </mxGeometry>
        </mxCell>
        <mxCell id="hMwthV5b42bd3Ut4s8Y7-26" value="Weighting, w&lt;sub&gt;1&lt;/sub&gt;" style="rounded=1;whiteSpace=wrap;html=1;fillColor=#CC99FF;" parent="1" vertex="1">
          <mxGeometry x="590.11" y="360" width="120" height="30" as="geometry" />
        </mxCell>
        <mxCell id="hMwthV5b42bd3Ut4s8Y7-77" value="" style="edgeStyle=orthogonalEdgeStyle;rounded=0;orthogonalLoop=1;jettySize=auto;html=1;entryX=0.5;entryY=1;entryDx=0;entryDy=0;" parent="1" source="hMwthV5b42bd3Ut4s8Y7-27" target="hMwthV5b42bd3Ut4s8Y7-32" edge="1">
          <mxGeometry relative="1" as="geometry" />
        </mxCell>
        <mxCell id="hMwthV5b42bd3Ut4s8Y7-27" value="&lt;div&gt;&lt;b&gt;Local Outlier &lt;br&gt;&lt;/b&gt;&lt;/div&gt;&lt;div&gt;&lt;b&gt;Factor, A&lt;sub&gt;2&lt;/sub&gt;&lt;/b&gt;&lt;/div&gt;&lt;div&gt;&lt;font size=&quot;3&quot;&gt;&lt;b&gt;&lt;br&gt;&lt;/b&gt;&lt;/font&gt;&lt;/div&gt;&lt;div&gt;&lt;font size=&quot;3&quot;&gt;&lt;b&gt;&lt;br&gt;&lt;/b&gt;&lt;/font&gt;&lt;/div&gt;&lt;div&gt;&lt;font size=&quot;3&quot;&gt;&lt;b&gt;&lt;br&gt;&lt;/b&gt;&lt;/font&gt;&lt;/div&gt;&lt;div&gt;&lt;font size=&quot;3&quot;&gt;&lt;b&gt;&lt;br&gt;&lt;/b&gt;&lt;/font&gt;&lt;/div&gt;&lt;div&gt;&lt;font size=&quot;3&quot;&gt;&lt;b&gt;&lt;br&gt;&lt;/b&gt;&lt;/font&gt;&lt;/div&gt;&lt;div&gt;&lt;font size=&quot;3&quot;&gt;&lt;b&gt;&lt;br&gt;&lt;/b&gt;&lt;/font&gt;&lt;/div&gt;&lt;div&gt;&lt;font size=&quot;3&quot;&gt;&lt;b&gt;&lt;br&gt;&lt;/b&gt;&lt;/font&gt;&lt;/div&gt;&lt;div&gt;&lt;font size=&quot;3&quot;&gt;&lt;b&gt;&lt;br&gt;&lt;/b&gt;&lt;/font&gt;&lt;/div&gt;&lt;div&gt;&lt;font size=&quot;3&quot;&gt;&lt;b&gt;&lt;br&gt;&lt;/b&gt;&lt;/font&gt;&lt;/div&gt;&lt;div&gt;&lt;font size=&quot;3&quot;&gt;&lt;b&gt;&lt;br&gt;&lt;/b&gt;&lt;/font&gt;&lt;/div&gt;&lt;div&gt;&lt;font size=&quot;3&quot;&gt;&lt;b&gt;&lt;br&gt;&lt;/b&gt;&lt;/font&gt;&lt;/div&gt;&lt;div&gt;&lt;font size=&quot;3&quot;&gt;&lt;b&gt;&lt;br&gt;&lt;/b&gt;&lt;/font&gt;&lt;/div&gt;&lt;div&gt;&lt;font size=&quot;3&quot;&gt;&lt;b&gt;&lt;br&gt;&lt;/b&gt;&lt;/font&gt;&lt;/div&gt;&lt;div&gt;&lt;font size=&quot;3&quot;&gt;&lt;b&gt;&lt;br&gt;&lt;/b&gt;&lt;/font&gt;&lt;/div&gt;&lt;div&gt;&lt;br&gt;&lt;/div&gt;" style="rounded=0;whiteSpace=wrap;html=1;fillColor=#F8CECC;" parent="1" vertex="1">
          <mxGeometry x="740.11" y="420" width="140" height="320" as="geometry" />
        </mxCell>
        <mxCell id="hMwthV5b42bd3Ut4s8Y7-28" value="Parent &lt;br&gt;&lt;div&gt;model, M&lt;sub&gt;2&lt;/sub&gt;&lt;/div&gt;" style="shape=process;whiteSpace=wrap;html=1;backgroundOutline=1;fillColor=#FFE599;" parent="1" vertex="1">
          <mxGeometry x="750.11" y="480" width="120" height="40" as="geometry" />
        </mxCell>
        <mxCell id="hMwthV5b42bd3Ut4s8Y7-80" value="" style="edgeStyle=orthogonalEdgeStyle;rounded=0;orthogonalLoop=1;jettySize=auto;html=1;" parent="1" source="hMwthV5b42bd3Ut4s8Y7-32" target="hMwthV5b42bd3Ut4s8Y7-74" edge="1">
          <mxGeometry relative="1" as="geometry">
            <Array as="points">
              <mxPoint x="810.11" y="340" />
              <mxPoint x="890.11" y="340" />
            </Array>
          </mxGeometry>
        </mxCell>
        <mxCell id="hMwthV5b42bd3Ut4s8Y7-32" value="Weighting, w&lt;sub&gt;2&lt;/sub&gt;" style="rounded=1;whiteSpace=wrap;html=1;fillColor=#CC99FF;" parent="1" vertex="1">
          <mxGeometry x="750.11" y="360" width="120" height="30" as="geometry" />
        </mxCell>
        <mxCell id="hMwthV5b42bd3Ut4s8Y7-78" style="edgeStyle=orthogonalEdgeStyle;rounded=0;orthogonalLoop=1;jettySize=auto;html=1;entryX=0.5;entryY=1;entryDx=0;entryDy=0;" parent="1" source="hMwthV5b42bd3Ut4s8Y7-33" target="hMwthV5b42bd3Ut4s8Y7-38" edge="1">
          <mxGeometry relative="1" as="geometry" />
        </mxCell>
        <mxCell id="hMwthV5b42bd3Ut4s8Y7-33" value="&lt;div&gt;&lt;b&gt;One-Class Support&lt;/b&gt;&lt;/div&gt;&lt;div&gt;&lt;b&gt;Vector Machine, A&lt;sub&gt;3&lt;/sub&gt;&lt;/b&gt;&lt;/div&gt;&lt;div&gt;&lt;font size=&quot;3&quot;&gt;&lt;b&gt;&lt;br&gt;&lt;/b&gt;&lt;/font&gt;&lt;/div&gt;&lt;div&gt;&lt;font size=&quot;3&quot;&gt;&lt;b&gt;&lt;br&gt;&lt;/b&gt;&lt;/font&gt;&lt;/div&gt;&lt;div&gt;&lt;font size=&quot;3&quot;&gt;&lt;b&gt;&lt;br&gt;&lt;/b&gt;&lt;/font&gt;&lt;/div&gt;&lt;div&gt;&lt;font size=&quot;3&quot;&gt;&lt;b&gt;&lt;br&gt;&lt;/b&gt;&lt;/font&gt;&lt;/div&gt;&lt;div&gt;&lt;font size=&quot;3&quot;&gt;&lt;b&gt;&lt;br&gt;&lt;/b&gt;&lt;/font&gt;&lt;/div&gt;&lt;div&gt;&lt;font size=&quot;3&quot;&gt;&lt;b&gt;&lt;br&gt;&lt;/b&gt;&lt;/font&gt;&lt;/div&gt;&lt;div&gt;&lt;font size=&quot;3&quot;&gt;&lt;b&gt;&lt;br&gt;&lt;/b&gt;&lt;/font&gt;&lt;/div&gt;&lt;div&gt;&lt;font size=&quot;3&quot;&gt;&lt;b&gt;&lt;br&gt;&lt;/b&gt;&lt;/font&gt;&lt;/div&gt;&lt;div&gt;&lt;font size=&quot;3&quot;&gt;&lt;b&gt;&lt;br&gt;&lt;/b&gt;&lt;/font&gt;&lt;/div&gt;&lt;div&gt;&lt;font size=&quot;3&quot;&gt;&lt;b&gt;&lt;br&gt;&lt;/b&gt;&lt;/font&gt;&lt;/div&gt;&lt;div&gt;&lt;font size=&quot;3&quot;&gt;&lt;b&gt;&lt;br&gt;&lt;/b&gt;&lt;/font&gt;&lt;/div&gt;&lt;div&gt;&lt;font size=&quot;3&quot;&gt;&lt;b&gt;&lt;br&gt;&lt;/b&gt;&lt;/font&gt;&lt;/div&gt;&lt;div&gt;&lt;font size=&quot;3&quot;&gt;&lt;b&gt;&lt;br&gt;&lt;/b&gt;&lt;/font&gt;&lt;/div&gt;&lt;div&gt;&lt;br&gt;&lt;/div&gt;&lt;div&gt;&lt;br&gt;&lt;/div&gt;" style="rounded=0;whiteSpace=wrap;html=1;fillColor=#F8CECC;" parent="1" vertex="1">
          <mxGeometry x="900.11" y="420" width="140" height="320" as="geometry" />
        </mxCell>
        <mxCell id="hMwthV5b42bd3Ut4s8Y7-34" value="&lt;div&gt;Parent &lt;br&gt;&lt;/div&gt;&lt;div&gt;model, M&lt;sub&gt;3&lt;/sub&gt;&lt;/div&gt;" style="shape=process;whiteSpace=wrap;html=1;backgroundOutline=1;fillColor=#FFE599;" parent="1" vertex="1">
          <mxGeometry x="910.11" y="480" width="120" height="40" as="geometry" />
        </mxCell>
        <mxCell id="hMwthV5b42bd3Ut4s8Y7-82" style="edgeStyle=orthogonalEdgeStyle;rounded=0;orthogonalLoop=1;jettySize=auto;html=1;" parent="1" source="hMwthV5b42bd3Ut4s8Y7-38" target="hMwthV5b42bd3Ut4s8Y7-74" edge="1">
          <mxGeometry relative="1" as="geometry">
            <Array as="points">
              <mxPoint x="970.11" y="340" />
              <mxPoint x="890.11" y="340" />
            </Array>
          </mxGeometry>
        </mxCell>
        <mxCell id="hMwthV5b42bd3Ut4s8Y7-38" value="Weighting, w&lt;sub&gt;3&lt;/sub&gt;" style="rounded=1;whiteSpace=wrap;html=1;fillColor=#CC99FF;" parent="1" vertex="1">
          <mxGeometry x="910.11" y="360" width="120" height="30" as="geometry" />
        </mxCell>
        <mxCell id="hMwthV5b42bd3Ut4s8Y7-40" value="&lt;div&gt;Parent&lt;/div&gt;&lt;div&gt;model, M&lt;sub&gt;4&lt;/sub&gt;&lt;/div&gt;" style="shape=process;whiteSpace=wrap;html=1;backgroundOutline=1;fillColor=#FFE599;" parent="1" vertex="1">
          <mxGeometry x="1070.1100000000001" y="480" width="120" height="40" as="geometry" />
        </mxCell>
        <mxCell id="hMwthV5b42bd3Ut4s8Y7-83" style="edgeStyle=orthogonalEdgeStyle;rounded=0;orthogonalLoop=1;jettySize=auto;html=1;entryX=0.5;entryY=1;entryDx=0;entryDy=0;" parent="1" source="hMwthV5b42bd3Ut4s8Y7-44" target="hMwthV5b42bd3Ut4s8Y7-74" edge="1">
          <mxGeometry relative="1" as="geometry">
            <Array as="points">
              <mxPoint x="1130.1100000000001" y="340" />
              <mxPoint x="890.11" y="340" />
            </Array>
          </mxGeometry>
        </mxCell>
        <mxCell id="hMwthV5b42bd3Ut4s8Y7-44" value="Weighting, w&lt;sub&gt;4&lt;/sub&gt;" style="rounded=1;whiteSpace=wrap;html=1;fillColor=#CC99FF;" parent="1" vertex="1">
          <mxGeometry x="1070.1100000000001" y="360" width="120" height="30" as="geometry" />
        </mxCell>
        <mxCell id="hMwthV5b42bd3Ut4s8Y7-53" value="" style="rounded=1;whiteSpace=wrap;html=1;fillColor=none;dashed=1;strokeWidth=2;" parent="1" vertex="1">
          <mxGeometry x="570.11" y="550" width="640" height="180" as="geometry" />
        </mxCell>
        <mxCell id="hMwthV5b42bd3Ut4s8Y7-57" value="&lt;b&gt;Subsidiary model, A&lt;sub&gt;m&lt;br&gt;&lt;/sub&gt;&lt;/b&gt;&lt;div&gt;&lt;font size=&quot;3&quot;&gt;&lt;b&gt;&lt;br&gt;&lt;/b&gt;&lt;/font&gt;&lt;/div&gt;&lt;div&gt;&lt;font size=&quot;3&quot;&gt;&lt;b&gt;&lt;br&gt;&lt;/b&gt;&lt;/font&gt;&lt;/div&gt;&lt;div&gt;&lt;font size=&quot;3&quot;&gt;&lt;b&gt;&lt;br&gt;&lt;/b&gt;&lt;/font&gt;&lt;/div&gt;&lt;div&gt;&lt;font size=&quot;3&quot;&gt;&lt;b&gt;&lt;br&gt;&lt;/b&gt;&lt;/font&gt;&lt;/div&gt;&lt;div&gt;&lt;font size=&quot;3&quot;&gt;&lt;b&gt;&lt;br&gt;&lt;/b&gt;&lt;/font&gt;&lt;/div&gt;&lt;div&gt;&lt;font size=&quot;3&quot;&gt;&lt;b&gt;&lt;br&gt;&lt;/b&gt;&lt;/font&gt;&lt;/div&gt;&lt;div&gt;&lt;font size=&quot;3&quot;&gt;&lt;b&gt;&lt;br&gt;&lt;/b&gt;&lt;/font&gt;&lt;/div&gt;&lt;div&gt;&lt;font size=&quot;3&quot;&gt;&lt;b&gt;&lt;br&gt;&lt;/b&gt;&lt;/font&gt;&lt;/div&gt;&lt;div&gt;&lt;font size=&quot;3&quot;&gt;&lt;b&gt;&lt;br&gt;&lt;/b&gt;&lt;/font&gt;&lt;/div&gt;&lt;div&gt;&lt;font size=&quot;3&quot;&gt;&lt;b&gt;&lt;br&gt;&lt;/b&gt;&lt;/font&gt;&lt;/div&gt;&lt;div&gt;&lt;font size=&quot;3&quot;&gt;&lt;b&gt;&lt;br&gt;&lt;/b&gt;&lt;/font&gt;&lt;/div&gt;&lt;div&gt;&lt;font size=&quot;3&quot;&gt;&lt;b&gt;&lt;br&gt;&lt;/b&gt;&lt;/font&gt;&lt;/div&gt;&lt;div&gt;&lt;br&gt;&lt;/div&gt;&lt;div&gt;&lt;br&gt;&lt;/div&gt;&lt;div&gt;&lt;br&gt;&lt;/div&gt;" style="rounded=0;whiteSpace=wrap;html=1;fillColor=#F8CECC;" parent="1" vertex="1">
          <mxGeometry x="340.03000000000003" y="420" width="140" height="320" as="geometry" />
        </mxCell>
        <mxCell id="hMwthV5b42bd3Ut4s8Y7-58" value="Parent model" style="shape=process;whiteSpace=wrap;html=1;backgroundOutline=1;fillColor=#FFE599;" parent="1" vertex="1">
          <mxGeometry x="350.03000000000003" y="480" width="120" height="40" as="geometry" />
        </mxCell>
        <mxCell id="hMwthV5b42bd3Ut4s8Y7-59" value="k-Child model" style="shape=process;whiteSpace=wrap;html=1;backgroundOutline=1;fillColor=#FFF2CC;" parent="1" vertex="1">
          <mxGeometry x="358.53000000000003" y="560" width="103" height="40" as="geometry" />
        </mxCell>
        <mxCell id="hMwthV5b42bd3Ut4s8Y7-60" value="k-Child model" style="shape=process;whiteSpace=wrap;html=1;backgroundOutline=1;fillColor=#FFF2CC;" parent="1" vertex="1">
          <mxGeometry x="358.53000000000003" y="620" width="103" height="40" as="geometry" />
        </mxCell>
        <mxCell id="hMwthV5b42bd3Ut4s8Y7-61" value="k-Child model" style="shape=process;whiteSpace=wrap;html=1;backgroundOutline=1;fillColor=#FFF2CC;" parent="1" vertex="1">
          <mxGeometry x="358.53000000000003" y="680" width="103" height="40" as="geometry" />
        </mxCell>
        <mxCell id="hMwthV5b42bd3Ut4s8Y7-62" value="" style="rounded=1;whiteSpace=wrap;html=1;fillColor=none;strokeWidth=2;strokeColor=default;dashed=1;" parent="1" vertex="1">
          <mxGeometry x="350.03000000000003" y="550" width="120" height="180" as="geometry" />
        </mxCell>
        <mxCell id="hMwthV5b42bd3Ut4s8Y7-65" style="edgeStyle=orthogonalEdgeStyle;rounded=0;orthogonalLoop=1;jettySize=auto;html=1;entryX=0;entryY=0.5;entryDx=0;entryDy=0;strokeWidth=2;" parent="1" source="hMwthV5b42bd3Ut4s8Y7-64" target="hMwthV5b42bd3Ut4s8Y7-62" edge="1">
          <mxGeometry relative="1" as="geometry">
            <Array as="points">
              <mxPoint x="410.03000000000003" y="760" />
              <mxPoint x="320.03000000000003" y="760" />
              <mxPoint x="320.03000000000003" y="640" />
            </Array>
          </mxGeometry>
        </mxCell>
        <mxCell id="hMwthV5b42bd3Ut4s8Y7-64" value="&lt;font style=&quot;font-size: 12px;&quot;&gt;Internal consensus score (ICS)&lt;br&gt;&lt;/font&gt;" style="text;html=1;strokeColor=none;fillColor=#b1ddf0;align=center;verticalAlign=middle;whiteSpace=wrap;rounded=1;" parent="1" vertex="1">
          <mxGeometry x="324.28000000000003" y="780" width="171.5" height="30" as="geometry" />
        </mxCell>
        <mxCell id="hMwthV5b42bd3Ut4s8Y7-68" style="edgeStyle=orthogonalEdgeStyle;rounded=0;orthogonalLoop=1;jettySize=auto;html=1;entryX=0;entryY=0.5;entryDx=0;entryDy=0;strokeWidth=2;" parent="1" source="hMwthV5b42bd3Ut4s8Y7-66" target="hMwthV5b42bd3Ut4s8Y7-53" edge="1">
          <mxGeometry relative="1" as="geometry">
            <Array as="points">
              <mxPoint x="731.11" y="760" />
              <mxPoint x="550.11" y="760" />
              <mxPoint x="550.11" y="640" />
            </Array>
          </mxGeometry>
        </mxCell>
        <mxCell id="hMwthV5b42bd3Ut4s8Y7-66" value="Combined &lt;font style=&quot;font-size: 12px;&quot;&gt;Internal consensus score (CICS)&lt;br&gt;&lt;/font&gt;" style="text;html=1;strokeColor=none;fillColor=#b1ddf0;align=center;verticalAlign=middle;whiteSpace=wrap;rounded=1;glass=0;shadow=0;" parent="1" vertex="1">
          <mxGeometry x="600.11" y="780" width="261.5" height="30" as="geometry" />
        </mxCell>
        <mxCell id="hMwthV5b42bd3Ut4s8Y7-70" style="edgeStyle=orthogonalEdgeStyle;rounded=0;orthogonalLoop=1;jettySize=auto;html=1;entryX=1;entryY=0.5;entryDx=0;entryDy=0;strokeWidth=2;" parent="1" source="hMwthV5b42bd3Ut4s8Y7-69" edge="1">
          <mxGeometry relative="1" as="geometry">
            <Array as="points">
              <mxPoint x="1050.1100000000001" y="760" />
              <mxPoint x="1230.1100000000001" y="760" />
              <mxPoint x="1230.1100000000001" y="500" />
            </Array>
            <mxPoint x="1210.1100000000001" y="500" as="targetPoint" />
          </mxGeometry>
        </mxCell>
        <mxCell id="hMwthV5b42bd3Ut4s8Y7-69" value="Combined &lt;font style=&quot;font-size: 12px;&quot;&gt;External consensus score (CECS)&lt;br&gt;&lt;/font&gt;" style="text;html=1;strokeColor=none;fillColor=#b1ddf0;align=center;verticalAlign=middle;whiteSpace=wrap;rounded=1;" parent="1" vertex="1">
          <mxGeometry x="921.61" y="780" width="260" height="30" as="geometry" />
        </mxCell>
        <mxCell id="hMwthV5b42bd3Ut4s8Y7-74" value="&lt;font size=&quot;3&quot;&gt;&lt;b&gt;Ensemble model, E&lt;br&gt;&lt;/b&gt;&lt;/font&gt;" style="shape=process;whiteSpace=wrap;html=1;backgroundOutline=1;fillColor=#cce5ff;strokeColor=#36393d;" parent="1" vertex="1">
          <mxGeometry x="780.11" y="250" width="220" height="60" as="geometry" />
        </mxCell>
        <mxCell id="53Ustn79F9XM7or2pPVB-1" value="" style="rounded=1;whiteSpace=wrap;html=1;fillColor=none;strokeWidth=2;strokeColor=default;dashed=1;" vertex="1" parent="1">
          <mxGeometry x="570.11" y="470" width="640" height="60" as="geometry" />
        </mxCell>
        <mxCell id="53Ustn79F9XM7or2pPVB-5" value="&lt;div&gt;k-Child &lt;br&gt;&lt;/div&gt;&lt;div&gt;model, m&lt;sub&gt;1&lt;/sub&gt;&lt;/div&gt;" style="shape=process;whiteSpace=wrap;html=1;backgroundOutline=1;fillColor=#FFF2CC;" vertex="1" parent="1">
          <mxGeometry x="758.61" y="560" width="103" height="40" as="geometry" />
        </mxCell>
        <mxCell id="53Ustn79F9XM7or2pPVB-6" value="&lt;div&gt;k-Child&lt;/div&gt;&lt;div&gt;model, m&lt;sub&gt;2&lt;/sub&gt;&lt;/div&gt;" style="shape=process;whiteSpace=wrap;html=1;backgroundOutline=1;fillColor=#FFF2CC;" vertex="1" parent="1">
          <mxGeometry x="758.61" y="620" width="103" height="40" as="geometry" />
        </mxCell>
        <mxCell id="53Ustn79F9XM7or2pPVB-7" value="&lt;div&gt;k-Child &lt;br&gt;&lt;/div&gt;&lt;div&gt;model, m&lt;sub&gt;3&lt;/sub&gt;&lt;/div&gt;" style="shape=process;whiteSpace=wrap;html=1;backgroundOutline=1;fillColor=#FFF2CC;" vertex="1" parent="1">
          <mxGeometry x="758.61" y="680" width="103" height="40" as="geometry" />
        </mxCell>
        <mxCell id="53Ustn79F9XM7or2pPVB-8" value="&lt;div&gt;k-Child &lt;br&gt;&lt;/div&gt;&lt;div&gt;model, m&lt;sub&gt;1&lt;/sub&gt;&lt;/div&gt;" style="shape=process;whiteSpace=wrap;html=1;backgroundOutline=1;fillColor=#FFF2CC;" vertex="1" parent="1">
          <mxGeometry x="918.61" y="560" width="103" height="40" as="geometry" />
        </mxCell>
        <mxCell id="53Ustn79F9XM7or2pPVB-9" value="&lt;div&gt;k-Child&lt;/div&gt;&lt;div&gt;model, m&lt;sub&gt;2&lt;/sub&gt;&lt;/div&gt;" style="shape=process;whiteSpace=wrap;html=1;backgroundOutline=1;fillColor=#FFF2CC;" vertex="1" parent="1">
          <mxGeometry x="918.61" y="620" width="103" height="40" as="geometry" />
        </mxCell>
        <mxCell id="53Ustn79F9XM7or2pPVB-10" value="&lt;div&gt;k-Child &lt;br&gt;&lt;/div&gt;&lt;div&gt;model, m&lt;sub&gt;3&lt;/sub&gt;&lt;/div&gt;" style="shape=process;whiteSpace=wrap;html=1;backgroundOutline=1;fillColor=#FFF2CC;" vertex="1" parent="1">
          <mxGeometry x="918.61" y="680" width="103" height="40" as="geometry" />
        </mxCell>
        <mxCell id="53Ustn79F9XM7or2pPVB-11" value="&lt;div&gt;k-Child &lt;br&gt;&lt;/div&gt;&lt;div&gt;model, m&lt;sub&gt;1&lt;/sub&gt;&lt;/div&gt;" style="shape=process;whiteSpace=wrap;html=1;backgroundOutline=1;fillColor=#FFF2CC;" vertex="1" parent="1">
          <mxGeometry x="1078.6100000000001" y="560" width="103" height="40" as="geometry" />
        </mxCell>
        <mxCell id="53Ustn79F9XM7or2pPVB-12" value="&lt;div&gt;k-Child&lt;/div&gt;&lt;div&gt;model, m&lt;sub&gt;2&lt;/sub&gt;&lt;/div&gt;" style="shape=process;whiteSpace=wrap;html=1;backgroundOutline=1;fillColor=#FFF2CC;" vertex="1" parent="1">
          <mxGeometry x="1078.6100000000001" y="620" width="103" height="40" as="geometry" />
        </mxCell>
        <mxCell id="53Ustn79F9XM7or2pPVB-13" value="&lt;div&gt;k-Child &lt;br&gt;&lt;/div&gt;&lt;div&gt;model, m&lt;sub&gt;3&lt;/sub&gt;&lt;/div&gt;" style="shape=process;whiteSpace=wrap;html=1;backgroundOutline=1;fillColor=#FFF2CC;" vertex="1" parent="1">
          <mxGeometry x="1078.6100000000001" y="680" width="103" height="40" as="geometry" />
        </mxCell>
      </root>
    </mxGraphModel>
  </diagram>
</mxfile>
